<svg xmlns="http://www.w3.org/2000/svg" viewBox="0 0 900 420"><defs><linearGradient id="a" x1="0" x2="1"><stop stop-color="#07111f"/><stop offset="1" stop-color="#1a2f4c"/></linearGradient><linearGradient id="b" x1="0" x2="1"><stop stop-color="#0f2340"/><stop offset="1" stop-color="#08101d"/></linearGradient><filter id="s"><feDropShadow dx="0" dy="24" stdDeviation="18" flood-color="#000" flood-opacity=".55"/></filter></defs><rect x="190" y="40" width="520" height="225" rx="20" fill="url(#a)" stroke="#2d6fb5" filter="url(#s)"/><rect x="210" y="62" width="480" height="55" rx="8" fill="#10294b" stroke="#188bff"/><text x="370" y="168" fill="#d9e7ff" font-family="Arial" font-size="42" opacity=".75">Soundcraft Ui24R</text><g fill="#07111f" stroke="#9bb8d4"><circle cx="255" cy="88" r="16"/><circle cx="320" cy="88" r="16"/><circle cx="385" cy="88" r="16"/><circle cx="450" cy="88" r="16"/><circle cx="570" cy="88" r="19"/><circle cx="635" cy="88" r="19"/></g><g stroke="#188bff" stroke-width="5"><line x1="250" y1="205" x2="250" y2="240"/><line x1="290" y1="195" x2="290" y2="240"/><line x1="330" y1="215" x2="330" y2="240"/><line x1="370" y1="185" x2="370" y2="240"/></g><g transform="translate(70,245) rotate(-13)" filter="url(#s)"><rect x="120" y="42" width="360" height="54" rx="27" fill="url(#b)" stroke="#3d5875"/><circle cx="100" cy="68" r="58" fill="#0c1728" stroke="#617895"/><path d="M55 52c26-22 67-22 94 0M48 70c32-20 75-20 106 0M58 90c26-14 60-14 84 0" stroke="#8ba3bd" fill="none" stroke-width="3" opacity=".7"/></g><path d="M690 190c70 0 90 68 40 110" fill="none" stroke="#3c5978" stroke-width="8"/><circle cx="735" cy="310" r="25" fill="#07111f" stroke="#8db5e0"/><circle cx="635" cy="258" r="21" fill="#07111f" stroke="#8db5e0"/><path d="M652 252c35-40 76-38 104-4" fill="none" stroke="#3c5978" stroke-width="8"/></svg>
